<svg width="512" height="512" viewBox="0 0 512 512" fill="none" xmlns="http://www.w3.org/2000/svg">
<path d="M416.512 315.755H241.227C234.347 315.755 229.045 309.675 229.984 302.848L256.448 110.336C256.574 109.411 256.501 108.471 256.234 107.577C255.966 106.683 255.511 105.856 254.897 105.153C254.284 104.45 253.527 103.886 252.678 103.499C251.829 103.113 250.906 102.913 249.973 102.912H212.64" stroke="#2D11D9" stroke-width="20" stroke-linecap="round" stroke-linejoin="round"/>
<path d="M253.355 132.832H444.875C449.888 132.832 453.813 137.184 453.291 142.176L442.603 244.043C442.044 249.346 439.543 254.255 435.58 257.824C431.617 261.393 426.474 263.368 421.141 263.371H235.413M187.509 176.064H128.747M177.237 244.736H58.6667" stroke="#2D11D9" stroke-width="20" stroke-linecap="round" stroke-linejoin="round"/>
<path d="M249.69 399.3C263.098 387.023 265.62 367.955 255.324 356.711C245.027 345.467 225.812 346.305 212.404 358.582C198.996 370.86 196.474 389.928 206.771 401.172C217.067 412.416 236.283 411.578 249.69 399.3Z" stroke="#2D11D9" stroke-width="20" stroke-linecap="round" stroke-linejoin="round"/>
<path d="M405.79 399.303C419.197 387.025 421.72 367.957 411.423 356.713C401.127 345.469 381.911 346.307 368.504 358.585C355.096 370.863 352.574 389.931 362.87 401.175C373.167 412.419 392.382 411.581 405.79 399.303Z" stroke="#2D11D9" stroke-width="20" stroke-linecap="round" stroke-linejoin="round"/>
</svg>
